<svg xmlns="http://www.w3.org/2000/svg" viewBox="0 0 6.82 6.85"><defs><style>.cls-1{fill:#16355e;}</style></defs><g id="圖層_2" data-name="圖層 2"><g id="圖層_1-2" data-name="圖層 1"><path class="cls-1" d="M1.76,3.52A1.75,1.75,0,0,0,3.44,2.24H6.37a.42.42,0,0,0,0-.84H3.48A1.76,1.76,0,1,0,1.76,3.52ZM1.76,1a.83.83,0,0,1,.74.47.85.85,0,0,1,.08.35.77.77,0,0,1-.08.34A.82.82,0,1,1,1.76,1Z"/><path class="cls-1" d="M5.07,3.34A1.75,1.75,0,0,0,3.38,4.61H.46a.43.43,0,1,0,0,.85H3.34A1.76,1.76,0,1,0,5.07,3.34Zm0,2.51A.82.82,0,1,1,5.88,5,.81.81,0,0,1,5.07,5.85Z"/></g></g></svg>