<svg xmlns="http://www.w3.org/2000/svg" viewBox="0 0 29.99 8.03"><defs><style>.cls-1{fill:#5b92cd;}.cls-2{fill:#21160b;}</style></defs><g id="圖層_2" data-name="圖層 2"><g id="圖層_1-2" data-name="圖層 1"><path class="cls-1" d="M6.44,2.17c-.36,0-.73,0-1.09,0-.31.88-.63,1.76-1,2.67L3.74,3.06,2.78.23c0-.09,0-.19-.19-.19-.65,0-1.31,0-2,0C.53,0,.5.07.49.17s0,.49,0,.74L.27,3.65l-.12,2L0,7.76C0,8,0,8,.24,8H2c.1,0,.14,0,.15-.15,0-.55.07-1.1.11-1.65,0-.34.05-.67.07-1,.33.88.64,1.75.94,2.63,0,.11.09.18.2.18H5.32a.18.18,0,0,0,.19-.15c.07-.2.15-.38.22-.57l.84-2.17V2.3C6.57,2.19,6.53,2.17,6.44,2.17Z"/><path class="cls-2" d="M10.32,2c0-.63,0-1.25,0-1.87,0-.12,0-.15-.15-.15h-4A.17.17,0,0,0,6,.13c-.1.36-.23.71-.34,1.06a8.51,8.51,0,0,0-.3,1c.36,0,.73,0,1.09,0,.09,0,.13,0,.13.13V7.87c0,.12,0,.16.15.16.6,0,1.19,0,1.78,0,.19,0,.22,0,.22-.23,0-1.81,0-3.63,0-5.44,0-.14,0-.2.19-.19h1.26C10.28,2.18,10.32,2.14,10.32,2Z"/><path class="cls-2" d="M25.82,4A2.49,2.49,0,0,0,24,3.51a2.2,2.2,0,0,0-2,2.78A2.25,2.25,0,0,0,24.31,8a1.15,1.15,0,0,0,.44,0,2.22,2.22,0,0,0,1.88-2.51A2,2,0,0,0,25.82,4ZM23.94,6.61a.94.94,0,0,1-.51-.9.86.86,0,1,1,1.71,0A.85.85,0,0,1,23.94,6.61Z"/><path class="cls-2" d="M12.81,3.63a2.07,2.07,0,0,0-1.46-.31A2,2,0,0,0,9.66,4.57a2.9,2.9,0,0,0-.18,1.62,1.9,1.9,0,0,0,1.27,1.66,3.88,3.88,0,0,0,2.54-.08c.13,0,.09-.12.07-.19-.07-.29-.16-.58-.23-.87,0-.13-.07-.17-.21-.12a2.64,2.64,0,0,1-.88.19c-.48,0-.83,0-1-.44-.1-.21-.1-.22.12-.22h2.29c.08,0,.17,0,.18-.1a4.05,4.05,0,0,0,0-1.1A1.89,1.89,0,0,0,12.81,3.63ZM12.2,5.12H11c-.12,0-.12,0-.1-.13a.72.72,0,0,1,.71-.59A.69.69,0,0,1,12.3,5C12.31,5.1,12.28,5.13,12.2,5.12Z"/><path class="cls-2" d="M18,4.75A1.49,1.49,0,0,0,16.9,3.44a4,4,0,0,0-2.4.11c-.1,0-.06.1-.05.15.07.27.15.54.21.82s.06.15.19.11a2.73,2.73,0,0,1,1.06-.15c.27,0,.53,0,.67.33s.07.2-.11.19a4.61,4.61,0,0,0-1.17.08,1.43,1.43,0,0,0-.91,2.27A1.59,1.59,0,0,0,15.65,8a13.48,13.48,0,0,0,2.2-.06c.12,0,.15,0,.14-.16V6.31A12,12,0,0,0,18,4.75ZM16.62,6.4v.1c0,.42,0,.42-.43.42a1,1,0,0,1-.56-.11.44.44,0,0,1,0-.76,1.79,1.79,0,0,1,.94-.13c.08,0,.05.06.05.1S16.62,6.27,16.62,6.4Z"/><path class="cls-2" d="M21.49,3.62h-.61c-.16,0-.22,0-.21-.2s0-.46,0-.69-.05-.19-.2-.19h-1c-.31,0-.34,0-.3.31a2,2,0,0,1-.46,1.5,4.42,4.42,0,0,0-.28.45H19c.14,0,.19,0,.19.19,0,.55,0,1.11,0,1.66a1.25,1.25,0,0,0,.56,1.1,2.24,2.24,0,0,0,1.76.11c.09,0,.09-.08.09-.14V6.61a.91.91,0,0,1-.57.12.29.29,0,0,1-.32-.28c-.06-.51,0-1,0-1.54,0-.09.06-.1.13-.09.23,0,.47,0,.7,0s.13,0,.13-.13c0-.31,0-.62,0-.94C21.63,3.64,21.59,3.62,21.49,3.62Z"/><path class="cls-2" d="M29.77,3.51A1.33,1.33,0,0,0,28.58,4c0-.09,0-.12,0-.15s0-.22-.21-.21c-.37,0-.75,0-1.12,0-.12,0-.16,0-.16.15v4c0,.13,0,.16.16.15h1.2c.15,0,.18,0,.18-.19,0-.63,0-1.27,0-1.9A.86.86,0,0,1,29,5a1.14,1.14,0,0,1,.87,0c.06-.4,0-.81.08-1.21C30,3.56,29.92,3.53,29.77,3.51Z"/></g></g></svg>