<svg xmlns="http://www.w3.org/2000/svg" viewBox="0 0 9.36 8.21"><defs><style>.cls-1{fill:#fff;}.cls-2{fill:#ed7785;}</style></defs><g id="圖層_2" data-name="圖層 2"><g id="圖層_1-2" data-name="圖層 1"><path class="cls-1" d="M8.74,1.53a.89.89,0,0,0-.28,0H2.06L1.8.61A.46.46,0,0,0,1.45.26C1.15.18.85.09.54,0A.42.42,0,0,0,0,.3.43.43,0,0,0,.33.82,4.84,4.84,0,0,0,.84,1a.3.3,0,0,1,.26.26c.46,1.65.91,3.3,1.37,5a.23.23,0,0,1-.09.31.58.58,0,0,0-.14.72.64.64,0,0,0,.62.35A.63.63,0,0,0,3.41,7l0-.13h3l0,.09a.63.63,0,0,0,.65.55A.64.64,0,0,0,7.7,7a.61.61,0,0,0-.56-.63c-.75-.08-1.5-.14-2.25-.19L3.33,6l-.1-.4H6.94c.36,0,.47-.08.56-.43.23-.81.47-1.63.7-2.45.09-.33.09-.33.43-.35A.45.45,0,0,0,9.05,2,.43.43,0,0,0,8.74,1.53ZM3,4.67s-.06-.06-.08-.1c-.19-.69-.39-1.37-.6-2.09h.85c.05,0,.11.08.13.13l.46,2.07Zm2.33-1c0,.27-.1.54-.14.81s-.07.16-.2.16c-.43,0-.42,0-.5-.42L4.18,2.49H5.57C5.5,2.9,5.43,3.31,5.35,3.71ZM7,4a1.87,1.87,0,0,1-.07.22c0,.16-.08.43-.18.46a2.78,2.78,0,0,1-.77,0c.16-.71.32-1.37.46-2a.17.17,0,0,1,.2-.17h.78C7.26,3,7.12,3.48,7,4Z"/><circle class="cls-2" cx="7.81" cy="6.66" r="1.55"/><path class="cls-1" d="M9,6.86H8V7.8H7.61V6.86h-1v-.4h1v-1H8v1H9Z"/></g></g></svg>